<?xml version="1.0" standalone="no"?>
<!DOCTYPE svg PUBLIC "-//W3C//DTD SVG 20010904//EN"
 "http://www.w3.org/TR/2001/REC-SVG-20010904/DTD/svg10.dtd">
<svg version="1.0" xmlns="http://www.w3.org/2000/svg"
 width="16.000000pt" height="16.000000pt" viewBox="0 0 16.000000 16.000000"
 preserveAspectRatio="xMidYMid meet">
<metadata>
Created by potrace 1.11, written by Peter Selinger 2001-2013
</metadata>
<g transform="translate(0.000000,16.000000) scale(0.002610,-0.002610)"
fill="#000000" stroke="none">
<path d="M0 6054 c0 -46 4 -73 10 -69 5 3 39 -53 75 -125 l65 -130 -75 0 -75
0 0 -120 0 -120 75 0 75 0 -65 -130 c-36 -72 -70 -128 -75 -125 -6 4 -10 -46
-10 -135 0 -89 4 -139 10 -135 5 3 39 -53 75 -125 l65 -130 -75 0 -75 0 0
-120 0 -120 75 0 75 0 -65 -130 c-36 -72 -70 -128 -75 -125 -6 4 -10 -46 -10
-135 0 -89 4 -139 10 -135 5 3 39 -53 75 -125 l65 -130 -75 0 -75 0 0 -120 0
-120 75 0 75 0 -65 -130 c-36 -72 -70 -128 -75 -125 -6 4 -10 -46 -10 -135 0
-89 4 -139 10 -135 5 3 39 -53 75 -125 l65 -130 -75 0 -75 0 0 -120 0 -120 75
0 75 0 -65 -130 c-36 -72 -70 -128 -75 -125 -6 4 -10 -46 -10 -135 0 -89 4
-139 10 -135 5 3 39 -53 75 -125 l65 -130 -75 0 -75 0 0 -120 0 -120 75 0 75
0 -65 -130 c-36 -72 -70 -128 -75 -125 -6 4 -10 -46 -10 -135 0 -89 4 -139 10
-135 5 3 39 -53 75 -125 l65 -130 -75 0 -75 0 0 -120 0 -120 75 0 75 0 -65
-130 c-36 -72 -70 -128 -75 -125 -6 4 -10 -21 -10 -64 l0 -71 3065 0 3065 0 0
65 c0 60 -5 75 -65 195 l-65 130 65 0 65 0 0 120 0 120 -65 0 -65 0 65 130 65
130 0 130 0 130 -65 130 -65 130 65 0 65 0 0 120 0 120 -65 0 -65 0 65 130 65
130 0 130 0 130 -65 130 -65 130 65 0 65 0 0 120 0 120 -65 0 -65 0 65 130 65
130 0 130 0 130 -65 130 -65 130 65 0 65 0 0 120 0 120 -65 0 -65 0 65 130 65
130 0 130 0 130 -65 130 -65 130 65 0 65 0 0 120 0 120 -65 0 -65 0 65 130 65
130 0 130 0 130 -65 130 -65 130 65 0 65 0 0 120 0 120 -65 0 -65 0 65 130
c61 123 65 133 65 200 l0 70 -3065 0 -3065 0 0 -76z m335 -184 c-36 -71 -67
-130 -70 -130 -3 0 -34 59 -70 130 l-65 130 135 0 135 0 -65 -130z m510 0
c-36 -71 -67 -130 -70 -130 -3 0 -34 59 -70 130 l-65 130 135 0 135 0 -65
-130z m510 0 c-36 -71 -67 -130 -70 -130 -3 0 -34 59 -70 130 l-65 130 135 0
135 0 -65 -130z m510 0 c-36 -71 -67 -130 -70 -130 -3 0 -34 59 -70 130 l-65
130 135 0 135 0 -65 -130z m510 0 c-36 -71 -67 -130 -70 -130 -3 0 -34 59 -70
130 l-65 130 135 0 135 0 -65 -130z m510 0 c-36 -71 -67 -130 -70 -130 -3 0
-34 59 -70 130 l-65 130 135 0 135 0 -65 -130z m510 0 c-36 -71 -67 -130 -70
-130 -3 0 -34 59 -70 130 l-65 130 135 0 135 0 -65 -130z m510 0 c-36 -71 -67
-130 -70 -130 -3 0 -34 59 -70 130 l-65 130 135 0 135 0 -65 -130z m510 0
c-36 -71 -67 -130 -70 -130 -3 0 -34 59 -70 130 l-65 130 135 0 135 0 -65
-130z m510 0 c-36 -71 -67 -130 -70 -130 -3 0 -34 59 -70 130 l-65 130 135 0
135 0 -65 -130z m510 0 c-36 -71 -67 -130 -70 -130 -3 0 -34 59 -70 130 l-65
130 135 0 135 0 -65 -130z m510 0 c-36 -71 -67 -130 -70 -130 -3 0 -34 59 -70
130 l-65 130 135 0 135 0 -65 -130z m-5350 -10 l65 -130 -135 0 -135 0 65 130
c36 72 67 130 70 130 3 0 34 -58 70 -130z m510 0 l65 -130 -135 0 -135 0 65
130 c36 72 67 130 70 130 3 0 34 -58 70 -130z m510 0 l65 -130 -135 0 -135 0
65 130 c36 72 67 130 70 130 3 0 34 -58 70 -130z m510 0 l65 -130 -135 0 -135
0 65 130 c36 72 67 130 70 130 3 0 34 -58 70 -130z m510 0 l65 -130 -135 0
-135 0 65 130 c36 72 67 130 70 130 3 0 34 -58 70 -130z m510 0 l65 -130 -135
0 -135 0 65 130 c36 72 67 130 70 130 3 0 34 -58 70 -130z m510 0 l65 -130
-135 0 -135 0 65 130 c36 72 67 130 70 130 3 0 34 -58 70 -130z m510 0 l65
-130 -135 0 -135 0 65 130 c36 72 67 130 70 130 3 0 34 -58 70 -130z m510 0
l65 -130 -135 0 -135 0 65 130 c36 72 67 130 70 130 3 0 34 -58 70 -130z m510
0 l65 -130 -135 0 -135 0 65 130 c36 72 67 130 70 130 3 0 34 -58 70 -130z
m510 0 l65 -130 -135 0 -135 0 65 130 c36 72 67 130 70 130 3 0 34 -58 70
-130z m-5100 -500 c-36 -71 -67 -130 -70 -130 -3 0 -34 59 -70 130 l-65 130
135 0 135 0 -65 -130z m510 0 c-36 -71 -67 -130 -70 -130 -3 0 -34 59 -70 130
l-65 130 135 0 135 0 -65 -130z m510 0 c-36 -71 -67 -130 -70 -130 -3 0 -34
59 -70 130 l-65 130 135 0 135 0 -65 -130z m510 0 c-36 -71 -67 -130 -70 -130
-3 0 -34 59 -70 130 l-65 130 135 0 135 0 -65 -130z m510 0 c-36 -71 -67 -130
-70 -130 -3 0 -34 59 -70 130 l-65 130 135 0 135 0 -65 -130z m510 0 c-36 -71
-67 -130 -70 -130 -3 0 -34 59 -70 130 l-65 130 135 0 135 0 -65 -130z m510 0
c-36 -71 -67 -130 -70 -130 -3 0 -34 59 -70 130 l-65 130 135 0 135 0 -65
-130z m510 0 c-36 -71 -67 -130 -70 -130 -3 0 -34 59 -70 130 l-65 130 135 0
135 0 -65 -130z m510 0 c-36 -71 -67 -130 -70 -130 -3 0 -34 59 -70 130 l-65
130 135 0 135 0 -65 -130z m510 0 c-36 -71 -67 -130 -70 -130 -3 0 -34 59 -70
130 l-65 130 135 0 135 0 -65 -130z m510 0 c-36 -71 -67 -130 -70 -130 -3 0
-34 59 -70 130 l-65 130 135 0 135 0 -65 -130z m-5360 -10 l65 -130 -135 0
-135 0 65 130 c36 72 67 130 70 130 3 0 34 -58 70 -130z m510 0 l65 -130 -135
0 -135 0 65 130 c36 72 67 130 70 130 3 0 34 -58 70 -130z m510 0 l65 -130
-135 0 -135 0 65 130 c36 72 67 130 70 130 3 0 34 -58 70 -130z m510 0 l65
-130 -135 0 -135 0 65 130 c36 72 67 130 70 130 3 0 34 -58 70 -130z m510 0
l65 -130 -135 0 -135 0 65 130 c36 72 67 130 70 130 3 0 34 -58 70 -130z m510
0 l65 -130 -135 0 -135 0 65 130 c36 72 67 130 70 130 3 0 34 -58 70 -130z
m510 0 l65 -130 -135 0 -135 0 65 130 c36 72 67 130 70 130 3 0 34 -58 70
-130z m510 0 l65 -130 -135 0 -135 0 65 130 c36 72 67 130 70 130 3 0 34 -58
70 -130z m510 0 l65 -130 -135 0 -135 0 65 130 c36 72 67 130 70 130 3 0 34
-58 70 -130z m510 0 l65 -130 -135 0 -135 0 65 130 c36 72 67 130 70 130 3 0
34 -58 70 -130z m510 0 l65 -130 -135 0 -135 0 65 130 c36 72 67 130 70 130 3
0 34 -58 70 -130z m510 0 l65 -130 -135 0 -135 0 65 130 c36 72 67 130 70 130
3 0 34 -58 70 -130z m-5610 -500 c-36 -71 -67 -130 -70 -130 -3 0 -34 59 -70
130 l-65 130 135 0 135 0 -65 -130z m510 0 c-36 -71 -67 -130 -70 -130 -3 0
-34 59 -70 130 l-65 130 135 0 135 0 -65 -130z m510 0 c-36 -71 -67 -130 -70
-130 -3 0 -34 59 -70 130 l-65 130 135 0 135 0 -65 -130z m510 0 c-36 -71 -67
-130 -70 -130 -3 0 -34 59 -70 130 l-65 130 135 0 135 0 -65 -130z m510 0
c-36 -71 -67 -130 -70 -130 -3 0 -34 59 -70 130 l-65 130 135 0 135 0 -65
-130z m510 0 c-36 -71 -67 -130 -70 -130 -3 0 -34 59 -70 130 l-65 130 135 0
135 0 -65 -130z m510 0 c-36 -71 -67 -130 -70 -130 -3 0 -34 59 -70 130 l-65
130 135 0 135 0 -65 -130z m510 0 c-36 -71 -67 -130 -70 -130 -3 0 -34 59 -70
130 l-65 130 135 0 135 0 -65 -130z m510 0 c-36 -71 -67 -130 -70 -130 -3 0
-34 59 -70 130 l-65 130 135 0 135 0 -65 -130z m510 0 c-36 -71 -67 -130 -70
-130 -3 0 -34 59 -70 130 l-65 130 135 0 135 0 -65 -130z m510 0 c-36 -71 -67
-130 -70 -130 -3 0 -34 59 -70 130 l-65 130 135 0 135 0 -65 -130z m510 0
c-36 -71 -67 -130 -70 -130 -3 0 -34 59 -70 130 l-65 130 135 0 135 0 -65
-130z m-5350 -10 l65 -130 -135 0 -135 0 65 130 c36 72 67 130 70 130 3 0 34
-58 70 -130z m510 0 l65 -130 -135 0 -135 0 65 130 c36 72 67 130 70 130 3 0
34 -58 70 -130z m510 0 l65 -130 -135 0 -135 0 65 130 c36 72 67 130 70 130 3
0 34 -58 70 -130z m510 0 l65 -130 -135 0 -135 0 65 130 c36 72 67 130 70 130
3 0 34 -58 70 -130z m510 0 l65 -130 -135 0 -135 0 65 130 c36 72 67 130 70
130 3 0 34 -58 70 -130z m510 0 l65 -130 -135 0 -135 0 65 130 c36 72 67 130
70 130 3 0 34 -58 70 -130z m510 0 l65 -130 -135 0 -135 0 65 130 c36 72 67
130 70 130 3 0 34 -58 70 -130z m510 0 l65 -130 -135 0 -135 0 65 130 c36 72
67 130 70 130 3 0 34 -58 70 -130z m510 0 l65 -130 -135 0 -135 0 65 130 c36
72 67 130 70 130 3 0 34 -58 70 -130z m510 0 l65 -130 -135 0 -135 0 65 130
c36 72 67 130 70 130 3 0 34 -58 70 -130z m510 0 l65 -130 -135 0 -135 0 65
130 c36 72 67 130 70 130 3 0 34 -58 70 -130z m-5100 -500 c-36 -71 -67 -130
-70 -130 -3 0 -34 59 -70 130 l-65 130 135 0 135 0 -65 -130z m510 0 c-36 -71
-67 -130 -70 -130 -3 0 -34 59 -70 130 l-65 130 135 0 135 0 -65 -130z m510 0
c-36 -71 -67 -130 -70 -130 -3 0 -34 59 -70 130 l-65 130 135 0 135 0 -65
-130z m1020 0 c-36 -71 -67 -130 -70 -130 -3 0 -34 59 -70 130 l-65 130 135 0
135 0 -65 -130z m510 0 c-36 -71 -67 -130 -70 -130 -3 0 -34 59 -70 130 l-65
130 135 0 135 0 -65 -130z m510 0 c-36 -71 -67 -130 -70 -130 -3 0 -34 59 -70
130 l-65 130 135 0 135 0 -65 -130z m510 0 c-36 -71 -67 -130 -70 -130 -3 0
-34 59 -70 130 l-65 130 135 0 135 0 -65 -130z m510 0 c-36 -71 -67 -130 -70
-130 -3 0 -34 59 -70 130 l-65 130 135 0 135 0 -65 -130z m510 0 c-36 -71 -67
-130 -70 -130 -3 0 -34 59 -70 130 l-65 130 135 0 135 0 -65 -130z m510 0
c-36 -71 -67 -130 -70 -130 -3 0 -34 59 -70 130 l-65 130 135 0 135 0 -65
-130z m-5360 -10 l65 -130 -135 0 -135 0 65 130 c36 72 67 130 70 130 3 0 34
-58 70 -130z m510 0 l65 -130 -135 0 -135 0 65 130 c36 72 67 130 70 130 3 0
34 -58 70 -130z m510 0 l65 -130 -135 0 -135 0 65 130 c36 72 67 130 70 130 3
0 34 -58 70 -130z m1020 0 l65 -130 -135 0 -135 0 65 130 c36 72 67 130 70
130 3 0 34 -58 70 -130z m510 0 l65 -130 -135 0 -135 0 65 130 c36 72 67 130
70 130 3 0 34 -58 70 -130z m510 0 l65 -130 -135 0 -135 0 65 130 c36 72 67
130 70 130 3 0 34 -58 70 -130z m510 0 l65 -130 -135 0 -135 0 65 130 c36 72
67 130 70 130 3 0 34 -58 70 -130z m510 0 l65 -130 -135 0 -135 0 65 130 c36
72 67 130 70 130 3 0 34 -58 70 -130z m510 0 l65 -130 -135 0 -135 0 65 130
c36 72 67 130 70 130 3 0 34 -58 70 -130z m510 0 l65 -130 -135 0 -135 0 65
130 c36 72 67 130 70 130 3 0 34 -58 70 -130z m510 0 l65 -130 -135 0 -135 0
65 130 c36 72 67 130 70 130 3 0 34 -58 70 -130z m-5610 -500 c-36 -71 -67
-130 -70 -130 -3 0 -34 59 -70 130 l-65 130 135 0 135 0 -65 -130z m510 0
c-36 -71 -67 -130 -70 -130 -3 0 -34 59 -70 130 l-65 130 135 0 135 0 -65
-130z m510 0 c-36 -71 -67 -130 -70 -130 -3 0 -34 59 -70 130 l-65 130 135 0
135 0 -65 -130z m1020 0 c-36 -71 -67 -130 -70 -130 -3 0 -34 59 -70 130 l-65
130 135 0 135 0 -65 -130z m510 0 c-36 -71 -67 -130 -70 -130 -3 0 -34 59 -70
130 l-65 130 135 0 135 0 -65 -130z m510 0 c-36 -71 -67 -130 -70 -130 -3 0
-34 59 -70 130 l-65 130 135 0 135 0 -65 -130z m510 0 c-36 -71 -67 -130 -70
-130 -3 0 -34 59 -70 130 l-65 130 135 0 135 0 -65 -130z m510 0 c-36 -71 -67
-130 -70 -130 -3 0 -34 59 -70 130 l-65 130 135 0 135 0 -65 -130z m510 0
c-36 -71 -67 -130 -70 -130 -3 0 -34 59 -70 130 l-65 130 135 0 135 0 -65
-130z m510 0 c-36 -71 -67 -130 -70 -130 -3 0 -34 59 -70 130 l-65 130 135 0
135 0 -65 -130z m510 0 c-36 -71 -67 -130 -70 -130 -3 0 -34 59 -70 130 l-65
130 135 0 135 0 -65 -130z m-5350 -10 l65 -130 -135 0 -135 0 65 130 c36 72
67 130 70 130 3 0 34 -58 70 -130z m510 0 l65 -130 -135 0 -135 0 65 130 c36
72 67 130 70 130 3 0 34 -58 70 -130z m1020 0 l65 -130 -135 0 -135 0 65 130
c36 72 67 130 70 130 3 0 34 -58 70 -130z m510 0 l65 -130 -135 0 -135 0 65
130 c36 72 67 130 70 130 3 0 34 -58 70 -130z m510 0 l65 -130 -135 0 -135 0
65 130 c36 72 67 130 70 130 3 0 34 -58 70 -130z m510 0 l65 -130 -135 0 -135
0 65 130 c36 72 67 130 70 130 3 0 34 -58 70 -130z m510 0 l65 -130 -135 0
-135 0 65 130 c36 72 67 130 70 130 3 0 34 -58 70 -130z m510 0 l65 -130 -135
0 -135 0 65 130 c36 72 67 130 70 130 3 0 34 -58 70 -130z m510 0 l65 -130
-135 0 -135 0 65 130 c36 72 67 130 70 130 3 0 34 -58 70 -130z m510 0 l65
-130 -135 0 -135 0 65 130 c36 72 67 130 70 130 3 0 34 -58 70 -130z m-5100
-500 c-36 -71 -67 -130 -70 -130 -3 0 -34 59 -70 130 l-65 130 135 0 135 0
-65 -130z m510 0 c-36 -71 -67 -130 -70 -130 -3 0 -34 59 -70 130 l-65 130
135 0 135 0 -65 -130z m1020 0 c-36 -71 -67 -130 -70 -130 -3 0 -34 59 -70
130 l-65 130 135 0 135 0 -65 -130z m510 0 c-36 -71 -67 -130 -70 -130 -3 0
-34 59 -70 130 l-65 130 135 0 135 0 -65 -130z m510 0 c-36 -71 -67 -130 -70
-130 -3 0 -34 59 -70 130 l-65 130 135 0 135 0 -65 -130z m510 0 c-36 -71 -67
-130 -70 -130 -3 0 -34 59 -70 130 l-65 130 135 0 135 0 -65 -130z m510 0
c-36 -71 -67 -130 -70 -130 -3 0 -34 59 -70 130 l-65 130 135 0 135 0 -65
-130z m510 0 c-36 -71 -67 -130 -70 -130 -3 0 -34 59 -70 130 l-65 130 135 0
135 0 -65 -130z m510 0 c-36 -71 -67 -130 -70 -130 -3 0 -34 59 -70 130 l-65
130 135 0 135 0 -65 -130z m510 0 c-36 -71 -67 -130 -70 -130 -3 0 -34 59 -70
130 l-65 130 135 0 135 0 -65 -130z m-5360 -10 l65 -130 -135 0 -135 0 65 130
c36 72 67 130 70 130 3 0 34 -58 70 -130z m510 0 l65 -130 -135 0 -135 0 65
130 c36 72 67 130 70 130 3 0 34 -58 70 -130z m1020 0 l65 -130 -135 0 -135 0
65 130 c36 72 67 130 70 130 3 0 34 -58 70 -130z m510 0 l65 -130 -135 0 -135
0 65 130 c36 72 67 130 70 130 3 0 34 -58 70 -130z m510 0 l65 -130 -135 0
-135 0 65 130 c36 72 67 130 70 130 3 0 34 -58 70 -130z m510 0 l65 -130 -135
0 -135 0 65 130 c36 72 67 130 70 130 3 0 34 -58 70 -130z m1020 0 l65 -130
-135 0 -135 0 65 130 c36 72 67 130 70 130 3 0 34 -58 70 -130z m510 0 l65
-130 -135 0 -135 0 65 130 c36 72 67 130 70 130 3 0 34 -58 70 -130z m510 0
l65 -130 -135 0 -135 0 65 130 c36 72 67 130 70 130 3 0 34 -58 70 -130z m510
0 l65 -130 -135 0 -135 0 65 130 c36 72 67 130 70 130 3 0 34 -58 70 -130z
m-5610 -500 c-36 -71 -67 -130 -70 -130 -3 0 -34 59 -70 130 l-65 130 135 0
135 0 -65 -130z m510 0 c-36 -71 -67 -130 -70 -130 -3 0 -34 59 -70 130 l-65
130 135 0 135 0 -65 -130z m2040 0 c-36 -71 -67 -130 -70 -130 -3 0 -34 59
-70 130 l-65 130 135 0 135 0 -65 -130z m510 0 c-36 -71 -67 -130 -70 -130 -3
0 -34 59 -70 130 l-65 130 135 0 135 0 -65 -130z m1530 0 c-36 -71 -67 -130
-70 -130 -3 0 -34 59 -70 130 l-65 130 135 0 135 0 -65 -130z m1020 0 c-36
-71 -67 -130 -70 -130 -3 0 -34 59 -70 130 l-65 130 135 0 135 0 -65 -130z
m-5350 -10 l65 -130 -135 0 -135 0 65 130 c36 72 67 130 70 130 3 0 34 -58 70
-130z m2040 0 l65 -130 -135 0 -135 0 65 130 c36 72 67 130 70 130 3 0 34 -58
70 -130z m510 0 l65 -130 -135 0 -135 0 65 130 c36 72 67 130 70 130 3 0 34
-58 70 -130z m-2550 -500 c-36 -71 -67 -130 -70 -130 -3 0 -34 59 -70 130
l-65 130 135 0 135 0 -65 -130z m1530 0 c-36 -71 -67 -130 -70 -130 -3 0 -34
59 -70 130 l-65 130 135 0 135 0 -65 -130z m510 0 c-36 -71 -67 -130 -70 -130
-3 0 -34 59 -70 130 l-65 130 135 0 135 0 -65 -130z m510 0 c-36 -71 -67 -130
-70 -130 -3 0 -34 59 -70 130 l-65 130 135 0 135 0 -65 -130z m1020 0 c-36
-71 -67 -130 -70 -130 -3 0 -34 59 -70 130 l-65 130 135 0 135 0 -65 -130z
m1020 0 c-36 -71 -67 -130 -70 -130 -3 0 -34 59 -70 130 l-65 130 135 0 135 0
-65 -130z m-4850 -10 l65 -130 -135 0 -135 0 65 130 c36 72 67 130 70 130 3 0
34 -58 70 -130z m1020 0 l65 -130 -135 0 -135 0 65 130 c36 72 67 130 70 130
3 0 34 -58 70 -130z m1020 0 l65 -130 -135 0 -135 0 65 130 c36 72 67 130 70
130 3 0 34 -58 70 -130z m510 0 l65 -130 -135 0 -135 0 65 130 c36 72 67 130
70 130 3 0 34 -58 70 -130z m1020 0 l65 -130 -135 0 -135 0 65 130 c36 72 67
130 70 130 3 0 34 -58 70 -130z m1020 0 l65 -130 -135 0 -135 0 65 130 c36 72
67 130 70 130 3 0 34 -58 70 -130z m1020 0 l65 -130 -135 0 -135 0 65 130 c36
72 67 130 70 130 3 0 34 -58 70 -130z m-5610 -500 c-36 -71 -67 -130 -70 -130
-3 0 -34 59 -70 130 l-65 130 135 0 135 0 -65 -130z m1020 0 c-36 -71 -67
-130 -70 -130 -3 0 -34 59 -70 130 l-65 130 135 0 135 0 -65 -130z m1020 0
c-36 -71 -67 -130 -70 -130 -3 0 -34 59 -70 130 l-65 130 135 0 135 0 -65
-130z m510 0 c-36 -71 -67 -130 -70 -130 -3 0 -34 59 -70 130 l-65 130 135 0
135 0 -65 -130z m1020 0 c-36 -71 -67 -130 -70 -130 -3 0 -34 59 -70 130 l-65
130 135 0 135 0 -65 -130z m1020 0 c-36 -71 -67 -130 -70 -130 -3 0 -34 59
-70 130 l-65 130 135 0 135 0 -65 -130z m1020 0 c-36 -71 -67 -130 -70 -130
-3 0 -34 59 -70 130 l-65 130 135 0 135 0 -65 -130z m-4840 -10 l65 -130 -135
0 -135 0 65 130 c36 72 67 130 70 130 3 0 34 -58 70 -130z m510 0 l65 -130
-135 0 -135 0 65 130 c36 72 67 130 70 130 3 0 34 -58 70 -130z m1020 0 l65
-130 -135 0 -135 0 65 130 c36 72 67 130 70 130 3 0 34 -58 70 -130z m1020 0
l65 -130 -135 0 -135 0 65 130 c36 72 67 130 70 130 3 0 34 -58 70 -130z
m1020 0 l65 -130 -135 0 -135 0 65 130 c36 72 67 130 70 130 3 0 34 -58 70
-130z m1020 0 l65 -130 -135 0 -135 0 65 130 c36 72 67 130 70 130 3 0 34 -58
70 -130z m-5100 -500 c-36 -71 -67 -130 -70 -130 -3 0 -34 59 -70 130 l-65
130 135 0 135 0 -65 -130z m510 0 c-36 -71 -67 -130 -70 -130 -3 0 -34 59 -70
130 l-65 130 135 0 135 0 -65 -130z m510 0 c-36 -71 -67 -130 -70 -130 -3 0
-34 59 -70 130 l-65 130 135 0 135 0 -65 -130z m510 0 c-36 -71 -67 -130 -70
-130 -3 0 -34 59 -70 130 l-65 130 135 0 135 0 -65 -130z m510 0 c-36 -71 -67
-130 -70 -130 -3 0 -34 59 -70 130 l-65 130 135 0 135 0 -65 -130z m510 0
c-36 -71 -67 -130 -70 -130 -3 0 -34 59 -70 130 l-65 130 135 0 135 0 -65
-130z m510 0 c-36 -71 -67 -130 -70 -130 -3 0 -34 59 -70 130 l-65 130 135 0
135 0 -65 -130z m510 0 c-36 -71 -67 -130 -70 -130 -3 0 -34 59 -70 130 l-65
130 135 0 135 0 -65 -130z m510 0 c-36 -71 -67 -130 -70 -130 -3 0 -34 59 -70
130 l-65 130 135 0 135 0 -65 -130z m510 0 c-36 -71 -67 -130 -70 -130 -3 0
-34 59 -70 130 l-65 130 135 0 135 0 -65 -130z m510 0 c-36 -71 -67 -130 -70
-130 -3 0 -34 59 -70 130 l-65 130 135 0 135 0 -65 -130z m-5360 -10 l65 -130
-135 0 -135 0 65 130 c36 72 67 130 70 130 3 0 34 -58 70 -130z m510 0 l65
-130 -135 0 -135 0 65 130 c36 72 67 130 70 130 3 0 34 -58 70 -130z m510 0
l65 -130 -135 0 -135 0 65 130 c36 72 67 130 70 130 3 0 34 -58 70 -130z m510
0 l65 -130 -135 0 -135 0 65 130 c36 72 67 130 70 130 3 0 34 -58 70 -130z
m510 0 l65 -130 -135 0 -135 0 65 130 c36 72 67 130 70 130 3 0 34 -58 70
-130z m510 0 l65 -130 -135 0 -135 0 65 130 c36 72 67 130 70 130 3 0 34 -58
70 -130z m510 0 l65 -130 -135 0 -135 0 65 130 c36 72 67 130 70 130 3 0 34
-58 70 -130z m510 0 l65 -130 -135 0 -135 0 65 130 c36 72 67 130 70 130 3 0
34 -58 70 -130z m510 0 l65 -130 -135 0 -135 0 65 130 c36 72 67 130 70 130 3
0 34 -58 70 -130z m510 0 l65 -130 -135 0 -135 0 65 130 c36 72 67 130 70 130
3 0 34 -58 70 -130z m510 0 l65 -130 -135 0 -135 0 65 130 c36 72 67 130 70
130 3 0 34 -58 70 -130z m510 0 l65 -130 -135 0 -135 0 65 130 c36 72 67 130
70 130 3 0 34 -58 70 -130z m-5610 -500 c-36 -71 -67 -130 -70 -130 -3 0 -34
59 -70 130 l-65 130 135 0 135 0 -65 -130z m510 0 c-36 -71 -67 -130 -70 -130
-3 0 -34 59 -70 130 l-65 130 135 0 135 0 -65 -130z m510 0 c-36 -71 -67 -130
-70 -130 -3 0 -34 59 -70 130 l-65 130 135 0 135 0 -65 -130z m510 0 c-36 -71
-67 -130 -70 -130 -3 0 -34 59 -70 130 l-65 130 135 0 135 0 -65 -130z m510 0
c-36 -71 -67 -130 -70 -130 -3 0 -34 59 -70 130 l-65 130 135 0 135 0 -65
-130z m510 0 c-36 -71 -67 -130 -70 -130 -3 0 -34 59 -70 130 l-65 130 135 0
135 0 -65 -130z m510 0 c-36 -71 -67 -130 -70 -130 -3 0 -34 59 -70 130 l-65
130 135 0 135 0 -65 -130z m510 0 c-36 -71 -67 -130 -70 -130 -3 0 -34 59 -70
130 l-65 130 135 0 135 0 -65 -130z m510 0 c-36 -71 -67 -130 -70 -130 -3 0
-34 59 -70 130 l-65 130 135 0 135 0 -65 -130z m510 0 c-36 -71 -67 -130 -70
-130 -3 0 -34 59 -70 130 l-65 130 135 0 135 0 -65 -130z m510 0 c-36 -71 -67
-130 -70 -130 -3 0 -34 59 -70 130 l-65 130 135 0 135 0 -65 -130z m510 0
c-36 -71 -67 -130 -70 -130 -3 0 -34 59 -70 130 l-65 130 135 0 135 0 -65
-130z m-5350 -10 l65 -130 -135 0 -135 0 65 130 c36 72 67 130 70 130 3 0 34
-58 70 -130z m510 0 l65 -130 -135 0 -135 0 65 130 c36 72 67 130 70 130 3 0
34 -58 70 -130z m510 0 l65 -130 -135 0 -135 0 65 130 c36 72 67 130 70 130 3
0 34 -58 70 -130z m510 0 l65 -130 -135 0 -135 0 65 130 c36 72 67 130 70 130
3 0 34 -58 70 -130z m510 0 l65 -130 -135 0 -135 0 65 130 c36 72 67 130 70
130 3 0 34 -58 70 -130z m510 0 l65 -130 -135 0 -135 0 65 130 c36 72 67 130
70 130 3 0 34 -58 70 -130z m510 0 l65 -130 -135 0 -135 0 65 130 c36 72 67
130 70 130 3 0 34 -58 70 -130z m510 0 l65 -130 -135 0 -135 0 65 130 c36 72
67 130 70 130 3 0 34 -58 70 -130z m510 0 l65 -130 -135 0 -135 0 65 130 c36
72 67 130 70 130 3 0 34 -58 70 -130z m510 0 l65 -130 -135 0 -135 0 65 130
c36 72 67 130 70 130 3 0 34 -58 70 -130z m510 0 l65 -130 -135 0 -135 0 65
130 c36 72 67 130 70 130 3 0 34 -58 70 -130z m-5100 -500 c-36 -72 -67 -130
-70 -130 -3 0 -34 58 -70 130 l-65 130 135 0 135 0 -65 -130z m510 0 c-36 -72
-67 -130 -70 -130 -3 0 -34 58 -70 130 l-65 130 135 0 135 0 -65 -130z m510 0
c-36 -72 -67 -130 -70 -130 -3 0 -34 58 -70 130 l-65 130 135 0 135 0 -65
-130z m510 0 c-36 -72 -67 -130 -70 -130 -3 0 -34 58 -70 130 l-65 130 135 0
135 0 -65 -130z m510 0 c-36 -72 -67 -130 -70 -130 -3 0 -34 58 -70 130 l-65
130 135 0 135 0 -65 -130z m510 0 c-36 -72 -67 -130 -70 -130 -3 0 -34 58 -70
130 l-65 130 135 0 135 0 -65 -130z m510 0 c-36 -72 -67 -130 -70 -130 -3 0
-34 58 -70 130 l-65 130 135 0 135 0 -65 -130z m510 0 c-36 -72 -67 -130 -70
-130 -3 0 -34 58 -70 130 l-65 130 135 0 135 0 -65 -130z m510 0 c-36 -72 -67
-130 -70 -130 -3 0 -34 58 -70 130 l-65 130 135 0 135 0 -65 -130z m510 0
c-36 -72 -67 -130 -70 -130 -3 0 -34 58 -70 130 l-65 130 135 0 135 0 -65
-130z m510 0 c-36 -72 -67 -130 -70 -130 -3 0 -34 58 -70 130 l-65 130 135 0
135 0 -65 -130z m-5360 -10 l65 -130 -135 0 -135 0 65 130 c36 72 67 130 70
130 3 0 34 -58 70 -130z m510 0 l65 -130 -135 0 -135 0 65 130 c36 72 67 130
70 130 3 0 34 -58 70 -130z m510 0 l65 -130 -135 0 -135 0 65 130 c36 72 67
130 70 130 3 0 34 -58 70 -130z m510 0 l65 -130 -135 0 -135 0 65 130 c36 72
67 130 70 130 3 0 34 -58 70 -130z m510 0 l65 -130 -135 0 -135 0 65 130 c36
72 67 130 70 130 3 0 34 -58 70 -130z m510 0 l65 -130 -135 0 -135 0 65 130
c36 72 67 130 70 130 3 0 34 -58 70 -130z m510 0 l65 -130 -135 0 -135 0 65
130 c36 72 67 130 70 130 3 0 34 -58 70 -130z m510 0 l65 -130 -135 0 -135 0
65 130 c36 72 67 130 70 130 3 0 34 -58 70 -130z m510 0 l65 -130 -135 0 -135
0 65 130 c36 72 67 130 70 130 3 0 34 -58 70 -130z m510 0 l65 -130 -135 0
-135 0 65 130 c36 72 67 130 70 130 3 0 34 -58 70 -130z m510 0 l65 -130 -135
0 -135 0 65 130 c36 72 67 130 70 130 3 0 34 -58 70 -130z m510 0 l65 -130
-135 0 -135 0 65 130 c36 72 67 130 70 130 3 0 34 -58 70 -130z"/>
</g>
</svg>
